<?xml version="1.0" encoding="iso-8859-1"?>
<!-- Generator: Adobe Illustrator 18.1.1, SVG Export Plug-In . SVG Version: 6.00 Build 0)  -->
<svg version="1.1" id="Capa_1" xmlns="http://www.w3.org/2000/svg" xmlns:xlink="http://www.w3.org/1999/xlink" x="0px" y="0px"
	 viewBox="0 0 456.339 456.339" style="enable-background:new 0 0 456.339 456.339;" xml:space="preserve">
<g>
	<path d="M227.771,456.337c-38.232,0.007-76.687-9.533-111.516-29.143c-6.462-3.637-8.753-11.827-5.112-18.289
		c3.633-6.462,11.823-8.756,18.289-5.112c78.345,44.103,177.517,30.465,241.161-33.2c78.533-78.534,78.533-206.31,0-284.844
		c-78.534-78.547-206.321-78.537-284.851,0c-78.53,78.534-78.53,206.31,0,284.844c5.245,5.245,5.245,13.75,0,18.995
		c-5.238,5.245-13.743,5.245-18.988,0c-89.003-89.01-89.003-233.824,0-322.831c89.007-89.003,233.817-89.01,322.834,0
		c89.003,89.007,89.003,233.821,0,322.831C345.743,433.432,287.022,456.337,227.771,456.337z"/>
	<path d="M228.17,346.835c-7.417,0-13.428-6.015-13.428-13.428V131.705c0-7.413,6.011-13.428,13.428-13.428
		c7.413,0,13.428,6.015,13.428,13.428v201.702C241.598,340.82,235.583,346.835,228.17,346.835z"/>
	<path d="M329.02,245.984H127.322c-7.417,0-13.428-6.015-13.428-13.428c0-7.413,6.011-13.428,13.428-13.428H329.02
		c7.413,0,13.428,6.015,13.428,13.428C342.448,239.969,336.434,245.984,329.02,245.984z"/>
</g>
<g>
</g>
<g>
</g>
<g>
</g>
<g>
</g>
<g>
</g>
<g>
</g>
<g>
</g>
<g>
</g>
<g>
</g>
<g>
</g>
<g>
</g>
<g>
</g>
<g>
</g>
<g>
</g>
<g>
</g>
</svg>
